========================== AMERICAN BEAUTY =====================================

Format                           : AVI
Format/Info                      : Audio Video Interleave
File size                        : 700 MiB
Duration                         : 2h 1mn
Overall bit rate                 : 805 Kbps
Writing application              : VirtualDubMod 1.5.4.1 (build 2178/release)
Writing library                  : VirtualDubMod build 2178/release

Video
ID                               : 0
Format                           : MPEG-4 Visual
Format profile                   : Advanced Simple@L5
Format settings, BVOP            : Yes
Format settings, QPel            : No
Format settings, GMC             : No warppoints
Format settings, Matrix          : Custom
Codec ID                         : XVID
Codec ID/Hint                    : XviD
Duration                         : 2h 1mn
Bit rate                         : 670 Kbps
Width                            : 688 pixels
Height                           : 304 pixels
Display aspect ratio             : 2.25:1
Frame rate                       : 23.976 fps
Color space                      : YUV
Chroma subsampling               : 4:2:0
Bit depth                        : 8 bits
Scan type                        : Progressive
Bits/(Pixel*Frame)               : 0.134
Stream size                      : 583 MiB (83%)
Writing library                  : XviD 1.2.0.dev47 (UTC 2006-11-01)

Audio
ID                               : 1
Format                           : MPEG Audio
Format version                   : Version 1
Format profile                   : Layer 3
Mode                             : Joint stereo
Mode extension                   : MS Stereo
Codec ID                         : 55
Codec ID/Hint                    : MP3
Duration                         : 2h 1mn
Bit rate mode                    : Constant
Bit rate                         : 128 Kbps
Channel(s)                       : 2 channels
Sampling rate                    : 48.0 KHz
Stream size                      : 111 MiB (16%)
Alignment                        : Aligned on interleaves
Interleave, duration             : 83 ms (2.00 video frames)
Interleave, preload duration     : 504 ms
Writing library                  : LAME3.97 
Encoding settings                : -m j -V 4 -q 2 -lowpass 17 -b 128
Language                         : English

============================== CASTING =======================================

  Kevin Spacey  ...  Lester Burnham  
  Annette Bening  ...  Carolyn Burnham  
  Thora Birch  ...  Jane Burnham  
  Wes Bentley  ...  Ricky Fitts  
  Mena Suvari  ...  Angela Hayes  
  Chris Cooper  ...  Col. Frank Fitts, USMC  
  Peter Gallagher  ...  Buddy Kane  
  Allison Janney  ...  Barbara Fitts  

============================== SCREENSHOTS ===================================

                     http://bayimg.com/laefFAADK
                     http://bayimg.com/LAEFGaAdK
                     http://bayimg.com/LAeFhAADk
                     http://bayimg.com/lAEFiAAdk

===============================INFO @ NET ====================================

                     http://www.imdb.com/title/tt0169547/

============================== HAUNTING SUMMER ================================

                        ThE PlAcE wHeRe mOvIeS lIvEs

============================== HAUNTING SUMMER ================================